# xmcd
#
# Track frame offsets:
# 150
# 14624
# 30213
# 50061
# 75012
# 89765
# 105640
# 125488
# 142634
# 165406
# 177597
# 197533
# 216362
# 242116
# 258383
# 276797
# 299259
# 312797
# 339156
#
# Disc length: 4788 seconds
#
#
# Revision: 1
# Processed by: cddbd v1.5.1PL2 Copyright (c) Steve Scherf et al.
# Submitted via: FreeRIP 2.944 
#
DISCID=0312b213
DTITLE=Fatboy Slim - Bondi Beach - New Years Eve '06
DYEAR=2005
DGENRE=Club
TTITLE0=Stephane Malca - Revolution
TTITLE1=Spankox - To The Club (Highpass Remix)
TTITLE2=Britalics - I Can C Thru U (Hughes and Spier Mix)
TTITLE3=Professional Losers - Crazy Sexy Hypnotic (Full Vocal Mix)
TTITLE4=Turbomen - Would You Say Thankyou If I Spank You? (Original Mix)
TTITLE5=Solid Groove - This Is Sick
TTITLE6=The Young Punx - Young And Beautiful (The Laurent Konrad Remix)
TTITLE7=Tomboy - Samba!
TTITLE8=Jerry Ropero and Denis The Menace pres. Sabor feat. Jaqueline - Coraçao (Denis and Jerry's New Bangin 2005 Mix)
TTITLE9=Freeform Five - No More Conversations (Mylo Remix)
TTITLE10=Tomas Andersson - Washing Up (Tiga Remix)
TTITLE11=Trick and Kubic - Orbital Dance Machine
TTITLE12=Red - Release The Pressure (Fatboy Slim Remix)
TTITLE13=Scent - Up and Down
TTITLE14=Yer Man - Satisfy Me (Jacked Up Funk Mix)
TTITLE15=Friendly - The Bump and Grind
TTITLE16=DJ Icey - Acid Conga (Madox Adventures in Drum Remix)
TTITLE17=AB/DC - This Feelin' (Original Mix)
TTITLE18=Olav Basoski - Waterman (Original Mix)
EXTD=jcdj-
EXTT0=
EXTT1=
EXTT2=
EXTT3=
EXTT4=
EXTT5=
EXTT6=
EXTT7=
EXTT8=
EXTT9=
EXTT10=
EXTT11=
EXTT12=
EXTT13=
EXTT14=
EXTT15=
EXTT16=
EXTT17=
EXTT18=
PLAYORDER=
